<?xml version="1.0" encoding="utf-8" ?>
<svg baseProfile="full" height="768px" version="1.1" width="1024px" xmlns="http://www.w3.org/2000/svg" xmlns:ev="http://www.w3.org/2001/xml-events" xmlns:xlink="http://www.w3.org/1999/xlink"><defs><radialGradient id="radialGradient"><stop offset="0" stop-color="white" stop-opacity="0.1" /><stop offset="1" stop-color="black" stop-opacity="0" /></radialGradient></defs><rect fill="black" height="768px" width="1024px" x="0" y="0" /><circle cx="512" cy="384" fill="url(#radialGradient)" r="100" /><text fill="white" font-family="Arial" font-size="14px" x="692.0" y="344.0">Sector 1</text><circle cx="714.6067735624565" cy="398.59181765820455" fill="#00bfff" r="4" stroke="white" stroke-width="0.5" /><circle cx="673.7380884519456" cy="383.40540111370984" fill="#cccccc" r="4" stroke="white" stroke-width="0.5" /><circle cx="714.9337525026854" cy="349.6032041941802" fill="#cccccc" r="4" stroke="white" stroke-width="0.5" /><circle cx="719.9720015534178" cy="391.0759730362903" fill="#cccccc" r="4" stroke="white" stroke-width="0.5" /><circle cx="703.6706839024866" cy="362.5710425990983" fill="#00bfff" r="4" stroke="white" stroke-width="0.5" /><circle cx="693.3268044263687" cy="352.527684650562" fill="#cccccc" r="4" stroke="white" stroke-width="0.5" /><circle cx="746.0643554293983" cy="373.9153674672727" fill="#00bfff" r="4" stroke="white" stroke-width="0.5" /><circle cx="723.1549817826752" cy="403.5874831643129" fill="#00bfff" r="4" stroke="white" stroke-width="0.5" /><circle cx="713.0530402041409" cy="362.2127347070296" fill="#cccccc" r="4" stroke="white" stroke-width="0.5" /><text fill="white" font-family="Arial" font-size="14px" x="633.4213562373095" y="485.4213562373095">Sector 2</text><circle cx="638.9958456485314" cy="529.1423762134042" fill="#00bfff" r="4" stroke="white" stroke-width="0.5" /><circle cx="644.2375456690378" cy="561.3369128188303" fill="#00bfff" r="4" stroke="white" stroke-width="0.5" /><circle cx="642.523729524292" cy="532.0800109209537" fill="#cccccc" r="4" stroke="white" stroke-width="0.5" /><circle cx="659.2999594034344" cy="539.5394694070528" fill="#cccccc" r="4" stroke="white" stroke-width="0.5" /><circle cx="641.6502263153737" cy="533.6714529611946" fill="#00bfff" r="4" stroke="white" stroke-width="0.5" /><circle cx="663.2035744194008" cy="521.3133244244552" fill="#cccccc" r="4" stroke="white" stroke-width="0.5" /><circle cx="665.5346241294015" cy="522.063485579655" fill="#cccccc" r="4" stroke="white" stroke-width="0.5" /><circle cx="678.0113292143352" cy="521.3762862983776" fill="#00bfff" r="4" stroke="white" stroke-width="0.5" /><circle cx="673.397338497447" cy="492.5673855416437" fill="#cccccc" r="4" stroke="white" stroke-width="0.5" /><text fill="white" font-family="Arial" font-size="14px" x="492.0" y="544.0">Sector 3</text><circle cx="493.18235671508336" cy="585.5249001440128" fill="#cccccc" r="4" stroke="white" stroke-width="0.5" /><circle cx="534.975685468918" cy="557.7158902617227" fill="#cccccc" r="4" stroke="white" stroke-width="0.5" /><circle cx="531.9174882764435" cy="579.1120251174444" fill="#00bfff" r="4" stroke="white" stroke-width="0.5" /><circle cx="496.5853750542272" cy="614.3125712324213" fill="#cccccc" r="4" stroke="white" stroke-width="0.5" /><circle cx="503.4453257141566" cy="612.2561898659969" fill="#cccccc" r="4" stroke="white" stroke-width="0.5" /><circle cx="489.98827965491057" cy="603.917847674741" fill="#cccccc" r="4" stroke="white" stroke-width="0.5" /><circle cx="529.4842817216668" cy="554.1334456456932" fill="#00bfff" r="4" stroke="white" stroke-width="0.5" /><circle cx="498.64483796357564" cy="595.4523289694283" fill="#00bfff" r="4" stroke="white" stroke-width="0.5" /><circle cx="539.927057412526" cy="575.318992849888" fill="#cccccc" r="4" stroke="white" stroke-width="0.5" /><text fill="white" font-family="Arial" font-size="14px" x="350.5786437626905" y="485.4213562373095">Sector 4</text><circle cx="391.43972585574556" cy="530.1735665918179" fill="#00bfff" r="4" stroke="white" stroke-width="0.5" /><circle cx="376.5820998789961" cy="486.88192437280446" fill="#00bfff" r="4" stroke="white" stroke-width="0.5" /><circle cx="372.41703336532197" cy="551.7980497784185" fill="#00bfff" r="4" stroke="white" stroke-width="0.5" /><circle cx="373.70287817230826" cy="535.6229327295654" fill="#cccccc" r="4" stroke="white" stroke-width="0.5" /><circle cx="369.8856295569911" cy="499.7300388572587" fill="#00bfff" r="4" stroke="white" stroke-width="0.5" /><circle cx="369.293932912808" cy="508.48411952542267" fill="#cccccc" r="4" stroke="white" stroke-width="0.5" /><circle cx="385.0225366693163" cy="529.2202108985048" fill="#cccccc" r="4" stroke="white" stroke-width="0.5" /><circle cx="370.4242932337664" cy="537.573125121999" fill="#00bfff" r="4" stroke="white" stroke-width="0.5" /><circle cx="353.2943901937109" cy="512.5978798744038" fill="#00bfff" r="4" stroke="white" stroke-width="0.5" /><text fill="white" font-family="Arial" font-size="14px" x="292.0" y="344.0">Sector 5</text><circle cx="311.6943297838609" cy="401.7731400220126" fill="#00bfff" r="4" stroke="white" stroke-width="0.5" /><circle cx="299.5070098802703" cy="373.1724140815914" fill="#00bfff" r="4" stroke="white" stroke-width="0.5" /><circle cx="301.0012338380302" cy="413.4088439043921" fill="#00bfff" r="4" stroke="white" stroke-width="0.5" /><circle cx="284.11615126962835" cy="396.2456110637513" fill="#cccccc" r="4" stroke="white" stroke-width="0.5" /><circle cx="326.67375989013044" cy="371.76969401019477" fill="#00bfff" r="4" stroke="white" stroke-width="0.5" /><circle cx="335.3267292578931" cy="392.60636354442534" fill="#cccccc" r="4" stroke="white" stroke-width="0.5" /><circle cx="315.1033530743662" cy="351.21343562235614" fill="#00bfff" r="4" stroke="white" stroke-width="0.5" /><circle cx="308.63601281858274" cy="372.93606511820514" fill="#cccccc" r="4" stroke="white" stroke-width="0.5" /><circle cx="276.59046604793554" cy="392.76673881017183" fill="#00bfff" r="4" stroke="white" stroke-width="0.5" /><text fill="white" font-family="Arial" font-size="14px" x="350.5786437626905" y="202.57864376269052">Sector 6</text><circle cx="382.8616422619385" cy="274.5046191450956" fill="#00bfff" r="4" stroke="white" stroke-width="0.5" /><circle cx="390.1859152237106" cy="252.41741112733533" fill="#cccccc" r="4" stroke="white" stroke-width="0.5" /><circle cx="388.2959052493407" cy="211.10590387804913" fill="#00bfff" r="4" stroke="white" stroke-width="0.5" /><circle cx="364.0013408610608" cy="225.66835205410058" fill="#00bfff" r="4" stroke="white" stroke-width="0.5" /><circle cx="360.2267190209926" cy="266.34050640250376" fill="#00bfff" r="4" stroke="white" stroke-width="0.5" /><circle cx="383.92330877534295" cy="221.34487923415216" fill="#cccccc" r="4" stroke="white" stroke-width="0.5" /><circle cx="368.2703939406098" cy="271.08045174655626" fill="#00bfff" r="4" stroke="white" stroke-width="0.5" /><circle cx="382.6818461630065" cy="254.57322043631163" fill="#00bfff" r="4" stroke="white" stroke-width="0.5" /><circle cx="366.73393592027605" cy="262.60750042278477" fill="#cccccc" r="4" stroke="white" stroke-width="0.5" /><text fill="white" font-family="Arial" font-size="14px" x="491.99999999999994" y="144.0">Sector 7</text><circle cx="505.97774397333234" cy="163.3323016810719" fill="#00bfff" r="4" stroke="white" stroke-width="0.5" /><circle cx="502.77249267016424" cy="172.04685278395104" fill="#00bfff" r="4" stroke="white" stroke-width="0.5" /><circle cx="501.23118250526136" cy="197.32440271211644" fill="#cccccc" r="4" stroke="white" stroke-width="0.5" /><circle cx="544.1747053030072" cy="203.5766987885385" fill="#00bfff" r="4" stroke="white" stroke-width="0.5" /><circle cx="523.0798417555711" cy="188.38810520929295" fill="#00bfff" r="4" stroke="white" stroke-width="0.5" /><circle cx="544.6506676018049" cy="180.70556477210715" fill="#cccccc" r="4" stroke="white" stroke-width="0.5" /><circle cx="485.31993455116395" cy="165.1162349925808" fill="#cccccc" r="4" stroke="white" stroke-width="0.5" /><circle cx="487.944261421688" cy="171.5838116690906" fill="#00bfff" r="4" stroke="white" stroke-width="0.5" /><circle cx="507.011084999081" cy="211.9091835939509" fill="#00bfff" r="4" stroke="white" stroke-width="0.5" /><text fill="white" font-family="Arial" font-size="14px" x="633.4213562373095" y="202.57864376269046">Sector 8</text><circle cx="661.2965090544136" cy="218.28956212942813" fill="#00bfff" r="4" stroke="white" stroke-width="0.5" /><circle cx="624.5326052952015" cy="254.28987106104938" fill="#00bfff" r="4" stroke="white" stroke-width="0.5" /><circle cx="665.3203399599718" cy="264.86892463962977" fill="#00bfff" r="4" stroke="white" stroke-width="0.5" /><circle cx="638.5193938250686" cy="231.42310697956685" fill="#cccccc" r="4" stroke="white" stroke-width="0.5" /><circle cx="647.7985643452183" cy="279.585097859491" fill="#00bfff" r="4" stroke="white" stroke-width="0.5" /><circle cx="652.5493564487455" cy="226.89591307270905" fill="#cccccc" r="4" stroke="white" stroke-width="0.5" /><circle cx="672.4465309575597" cy="250.39075761296425" fill="#00bfff" r="4" stroke="white" stroke-width="0.5" /><circle cx="683.2442795511013" cy="261.9746684295728" fill="#00bfff" r="4" stroke="white" stroke-width="0.5" /><circle cx="667.6649023737971" cy="210.44244186999376" fill="#cccccc" r="4" stroke="white" stroke-width="0.5" /></svg>